<svg width="15" height="16" viewBox="0 0 15 16" fill="none" xmlns="http://www.w3.org/2000/svg">
<path d="M14.6202 13.6971L10.7502 9.82707C11.4512 8.89807 11.8722 7.74607 11.8722 6.49507C11.8722 3.43507 9.38322 0.945068 6.32222 0.945068C3.26222 0.945068 0.772217 3.43507 0.772217 6.49507C0.772217 9.55607 3.26222 12.0451 6.32222 12.0451C7.57322 12.0451 8.72522 11.6241 9.65422 10.9231L13.5242 14.7931C13.6752 14.9441 13.8742 15.0211 14.0722 15.0211C14.2702 15.0211 14.4682 14.9451 14.6202 14.7931C14.9232 14.4901 14.9232 14.0001 14.6202 13.6971ZM1.87222 6.49507C1.87222 4.04107 3.86922 2.04507 6.32222 2.04507C8.77622 2.04507 10.7722 4.04207 10.7722 6.49507C10.7722 8.94807 8.77622 10.9451 6.32222 10.9451C3.86822 10.9451 1.87222 8.94907 1.87222 6.49507Z" fill="white" fill-opacity="0.8"/>
</svg>
