<svg width="13" height="16" viewBox="0 0 13 16" fill="none" xmlns="http://www.w3.org/2000/svg">
<path d="M10.8157 3.52339H9.79522C9.68582 2.71238 9.28946 1.9674 8.67801 1.42349C8.06655 0.879579 7.28046 0.572742 6.46222 0.558594C5.64398 0.572742 4.85789 0.879579 4.24643 1.42349C3.63497 1.9674 3.23862 2.71238 3.12922 3.52339H2.10922C1.54801 3.52376 1.00988 3.74681 0.612965 4.14357C0.216054 4.54034 -0.00719928 5.07838 -0.00778198 5.63959V13.3551C-0.0072791 13.9162 0.215823 14.4543 0.612564 14.8511C1.00931 15.2479 1.54728 15.4712 2.10842 15.4718H10.8154C11.3767 15.4713 11.9148 15.2482 12.3117 14.8513C12.7085 14.4545 12.9317 13.9163 12.9322 13.3551V5.63959C12.9316 5.07847 12.7085 4.5405 12.3116 4.14375C11.9148 3.74701 11.3768 3.5239 10.8157 3.52339ZM6.46222 1.65819C6.98963 1.66966 7.49734 1.86076 7.9014 2.19991C8.30547 2.53907 8.5817 3.00596 8.68442 3.52339H4.24002C4.34274 3.00596 4.61897 2.53907 5.02304 2.19991C5.4271 1.86076 5.93481 1.66966 6.46222 1.65819ZM11.8322 13.3551C11.8319 13.6247 11.7247 13.8831 11.5342 14.0738C11.3436 14.2645 11.0852 14.3718 10.8156 14.3722H2.10872C1.83916 14.3717 1.58078 14.2644 1.39023 14.0738C1.19968 13.8831 1.09251 13.6247 1.09222 13.3551V5.63959C1.09254 5.37007 1.19974 5.11168 1.39032 4.9211C1.5809 4.73052 1.8393 4.62331 2.10882 4.62299H10.8158C11.0853 4.62336 11.3436 4.7306 11.5342 4.92117C11.7247 5.11175 11.8319 5.37011 11.8322 5.63959V13.3551Z" fill="white" fill-opacity="0.8"/>
</svg>
